<?xml version="1.0" encoding="UTF-8"?>
<svg xmlns="http://www.w3.org/2000/svg" version="1.1" viewBox="0 0 31.4 29.9">
  <!-- Generator: Adobe Illustrator 28.7.1, SVG Export Plug-In . SVG Version: 1.2.0 Build 142)  -->
  <g>
    <g id="Calque_1">
      <g id="Calque_1-2" data-name="Calque_1">
        <path d="M10.1,3c-3.9,0-7.1,3.1-7.1,7.1v9.8c0,3.9,3.2,7.1,7.1,7.1h9.9c4,0,7.1-3.1,7.1-7.1v-9.8c0-3.9-3.2-7.1-7.1-7.1,0,0-9.9,0-9.9,0ZM10.1,4.1h9.9c3.3,0,6.1,2.6,6.1,6v9.8c0,3.3-2.7,6-6.1,6h-9.9c-3.3,0-6.1-2.6-6.1-6v-9.8c0-3.3,2.7-6,6.1-6ZM21.7,7.4c-.6,0-1.1.5-1.1,1.1s.5,1.1,1.1,1.1,1.1-.5,1.1-1.1-.5-1.1-1.1-1.1ZM15.1,9c-3.3,0-6.1,2.7-6.1,6s2.7,6,6.1,6,6.1-2.7,6.1-6-2.7-6-6.1-6ZM15.1,10.1c2.7,0,5,2.2,5,4.9s-2.2,4.9-5,4.9-5-2.2-5-4.9,2.2-4.9,5-4.9Z"/>
      </g>
    </g>
  </g>
</svg>